<?xml version="1.0" encoding="UTF-8"?>
<svg xmlns="http://www.w3.org/2000/svg" xmlns:xlink="http://www.w3.org/1999/xlink" width="375pt" height="374.999991pt" viewBox="0 0 375 374.999991" version="1.2">
<defs>
<clipPath id="clip1">
  <path d="M 44.558594 68 L 330.308594 68 L 330.308594 312 L 44.558594 312 Z M 44.558594 68 "/>
</clipPath>
<clipPath id="clip2">
  <path d="M 311 44.558594 L 321 44.558594 L 321 55 L 311 55 Z M 311 44.558594 "/>
</clipPath>
<clipPath id="clip3">
  <path d="M 320 54 L 330.308594 54 L 330.308594 64 L 320 64 Z M 320 54 "/>
</clipPath>
<clipPath id="clip4">
  <path d="M 54 44.558594 L 64 44.558594 L 64 55 L 54 55 Z M 54 44.558594 "/>
</clipPath>
<clipPath id="clip5">
  <path d="M 44.558594 54 L 55 54 L 55 64 L 44.558594 64 Z M 44.558594 54 "/>
</clipPath>
<clipPath id="clip6">
  <path d="M 311 320 L 321 320 L 321 330.308594 L 311 330.308594 Z M 311 320 "/>
</clipPath>
<clipPath id="clip7">
  <path d="M 320 311 L 330.308594 311 L 330.308594 321 L 320 321 Z M 320 311 "/>
</clipPath>
<clipPath id="clip8">
  <path d="M 54 320 L 64 320 L 64 330.308594 L 54 330.308594 Z M 54 320 "/>
</clipPath>
<clipPath id="clip9">
  <path d="M 44.558594 311 L 55 311 L 55 321 L 44.558594 321 Z M 44.558594 311 "/>
</clipPath>
</defs>
<g id="surface1">
<g clip-path="url(#clip1)" clip-rule="nonzero">
<path style=" stroke:none;fill-rule:nonzero;fill:rgb(45.878601%,50.19989%,61.178589%);fill-opacity:1;" d="M 100.851562 304.765625 L 109.984375 308.648438 C 114.082031 310.398438 118.464844 311.269531 122.839844 311.269531 C 127.488281 311.269531 132.128906 310.285156 136.429688 308.320312 L 143.035156 305.308594 C 157.898438 298.519531 171.371094 285.082031 181.378906 267.339844 C 184.050781 268.027344 186.777344 268.40625 189.515625 268.40625 C 191.308594 268.40625 193.09375 268.214844 194.863281 267.921875 C 205.242188 285.265625 219.082031 298.316406 234.203125 304.757812 L 243.332031 308.644531 C 247.433594 310.394531 251.816406 311.265625 256.191406 311.265625 C 260.839844 311.265625 265.476562 310.277344 269.777344 308.316406 L 276.382812 305.300781 C 309.691406 290.109375 330.308594 245.058594 330.308594 212.027344 L 330.308594 115.996094 C 330.308594 114.574219 329.671875 113.226562 328.578125 112.320312 C 327.476562 111.417969 326.019531 111.050781 324.632812 111.324219 L 283.652344 119.339844 C 277.175781 120.609375 270.441406 121.308594 263.636719 121.675781 L 263.636719 73.136719 C 263.636719 71.710938 262.996094 70.363281 261.902344 69.457031 C 260.800781 68.554688 259.347656 68.1875 257.957031 68.464844 L 216.976562 76.476562 C 198.988281 79.996094 180.71875 80.113281 162.683594 76.816406 L 116.855469 68.449219 C 115.460938 68.207031 114.03125 68.574219 112.949219 69.476562 C 111.863281 70.382812 111.234375 71.722656 111.234375 73.136719 L 111.234375 121.546875 C 106.121094 121.160156 101.011719 120.59375 96.007812 119.679688 L 50.179688 111.3125 C 48.789062 111.058594 47.359375 111.433594 46.273438 112.339844 C 45.1875 113.246094 44.558594 114.582031 44.558594 115.996094 L 44.558594 210.4375 C 44.558594 244.269531 66.082031 289.953125 100.851562 304.765625 Z M 263.636719 169.167969 L 263.636719 131.308594 C 271.070312 130.933594 278.398438 130.074219 285.476562 128.691406 L 320.785156 121.78125 L 320.785156 212.027344 C 320.785156 242.109375 302.296875 283.015625 272.425781 296.648438 L 265.820312 299.664062 C 259.980469 302.324219 252.976562 302.410156 247.0625 299.890625 L 237.933594 296.007812 C 225.195312 290.578125 213.375 279.632812 204.183594 264.972656 L 209.699219 262.453125 C 220.195312 257.664062 229.421875 249.90625 237.152344 240.496094 L 291.046875 253.96875 C 291.4375 254.0625 291.828125 254.109375 292.210938 254.109375 C 293.945312 254.109375 295.582031 253.15625 296.421875 251.570312 C 297.445312 249.632812 297.011719 247.246094 295.371094 245.789062 L 255.035156 209.933594 C 260.605469 196.140625 263.636719 181.777344 263.636719 169.167969 Z M 250.910156 219.011719 L 274.554688 240.027344 L 243.25 232.203125 C 246.074219 227.984375 248.632812 223.566406 250.910156 219.011719 Z M 120.761719 78.84375 L 160.96875 86.1875 C 180.175781 89.695312 199.636719 89.574219 218.800781 85.828125 L 254.109375 78.917969 L 254.109375 169.167969 C 254.109375 199.246094 235.621094 240.152344 205.75 253.785156 L 199.144531 256.800781 C 193.308594 259.464844 186.300781 259.542969 180.386719 257.03125 L 171.257812 253.144531 C 140.066406 239.851562 120.761719 198.378906 120.761719 167.574219 Z M 54.085938 121.707031 L 94.296875 129.050781 C 99.863281 130.066406 105.542969 130.691406 111.234375 131.089844 L 111.234375 167.574219 C 111.234375 188.933594 119.832031 215.003906 134.90625 235.058594 L 87.421875 235.058594 L 87.421875 244.585938 L 143.054688 244.585938 C 150.207031 251.957031 158.394531 258.015625 167.527344 261.902344 L 172.363281 263.960938 C 163.433594 279.3125 151.769531 290.851562 139.082031 296.648438 L 132.476562 299.664062 C 126.632812 302.324219 119.625 302.40625 113.714844 299.890625 L 104.585938 296.007812 C 73.390625 282.714844 54.085938 241.242188 54.085938 210.4375 Z M 54.085938 121.707031 "/>
</g>
<path style=" stroke:none;fill-rule:nonzero;fill:rgb(45.878601%,50.19989%,61.178589%);fill-opacity:1;" d="M 187.433594 238.785156 C 193.222656 238.785156 198.507812 235.855469 201.574219 230.945312 L 239.097656 170.910156 C 240.265625 169.042969 240 166.625 238.457031 165.050781 C 236.917969 163.484375 234.5 163.175781 232.609375 164.304688 L 191.117188 189.203125 C 188.84375 190.5625 186.019531 190.5625 183.757812 189.203125 L 142.261719 164.304688 C 140.371094 163.171875 137.953125 163.480469 136.414062 165.050781 C 134.871094 166.625 134.609375 169.046875 135.773438 170.910156 L 173.296875 230.945312 C 176.363281 235.855469 181.648438 238.785156 187.433594 238.785156 Z M 178.859375 197.371094 C 184.148438 200.542969 190.726562 200.542969 196.015625 197.371094 L 220.519531 182.667969 L 193.496094 225.902344 C 190.824219 230.167969 184.042969 230.167969 181.371094 225.902344 L 154.351562 182.667969 Z M 178.859375 197.371094 "/>
<path style=" stroke:none;fill-rule:nonzero;fill:rgb(45.878601%,50.19989%,61.178589%);fill-opacity:1;" d="M 217.144531 139.605469 C 218.214844 139.738281 219.285156 139.808594 220.359375 139.808594 C 226.902344 139.808594 233.382812 137.308594 238.902344 132.601562 L 245.292969 127.148438 L 239.113281 119.902344 L 232.722656 125.355469 C 228.296875 129.128906 223.332031 130.785156 218.335938 130.160156 C 212.6875 129.445312 207.269531 125.78125 203.089844 119.832031 L 195.296875 125.308594 C 201.046875 133.472656 208.800781 138.546875 217.144531 139.605469 Z M 217.144531 139.605469 "/>
<path style=" stroke:none;fill-rule:nonzero;fill:rgb(45.878601%,50.19989%,61.178589%);fill-opacity:1;" d="M 154.511719 139.808594 C 155.582031 139.808594 156.660156 139.742188 157.726562 139.609375 C 166.066406 138.554688 173.824219 133.476562 179.566406 125.308594 L 171.777344 119.832031 C 167.59375 125.78125 162.179688 129.453125 156.53125 130.160156 C 151.546875 130.785156 146.566406 129.132812 142.144531 125.355469 L 135.753906 119.902344 L 129.570312 127.148438 L 135.960938 132.601562 C 141.488281 137.308594 147.96875 139.808594 154.511719 139.808594 Z M 154.511719 139.808594 "/>
<path style=" stroke:none;fill-rule:nonzero;fill:rgb(45.878601%,50.19989%,61.178589%);fill-opacity:1;" d="M 280.414062 169.929688 C 286.574219 162.992188 296.0625 161.644531 303.484375 166.652344 L 308.59375 170.105469 L 313.921875 162.214844 L 308.808594 158.761719 C 297.316406 151.007812 282.714844 153.003906 273.292969 163.605469 L 269.597656 167.761719 L 276.714844 174.089844 Z M 280.414062 169.929688 "/>
<path style=" stroke:none;fill-rule:nonzero;fill:rgb(45.878601%,50.19989%,61.178589%);fill-opacity:1;" d="M 68.371094 168.386719 L 96.949219 168.386719 L 96.949219 177.910156 L 68.371094 177.910156 Z M 68.371094 168.386719 "/>
<g clip-path="url(#clip2)" clip-rule="nonzero">
<path style=" stroke:none;fill-rule:nonzero;fill:rgb(45.878601%,50.19989%,61.178589%);fill-opacity:1;" d="M 311.261719 44.558594 L 320.785156 44.558594 L 320.785156 54.085938 L 311.261719 54.085938 Z M 311.261719 44.558594 "/>
</g>
<path style=" stroke:none;fill-rule:nonzero;fill:rgb(45.878601%,50.19989%,61.178589%);fill-opacity:1;" d="M 311.261719 63.609375 L 320.785156 63.609375 L 320.785156 73.136719 L 311.261719 73.136719 Z M 311.261719 63.609375 "/>
<g clip-path="url(#clip3)" clip-rule="nonzero">
<path style=" stroke:none;fill-rule:nonzero;fill:rgb(45.878601%,50.19989%,61.178589%);fill-opacity:1;" d="M 320.785156 54.085938 L 330.308594 54.085938 L 330.308594 63.609375 L 320.785156 63.609375 Z M 320.785156 54.085938 "/>
</g>
<path style=" stroke:none;fill-rule:nonzero;fill:rgb(45.878601%,50.19989%,61.178589%);fill-opacity:1;" d="M 301.734375 54.085938 L 311.261719 54.085938 L 311.261719 63.609375 L 301.734375 63.609375 Z M 301.734375 54.085938 "/>
<g clip-path="url(#clip4)" clip-rule="nonzero">
<path style=" stroke:none;fill-rule:nonzero;fill:rgb(45.878601%,50.19989%,61.178589%);fill-opacity:1;" d="M 54.085938 44.558594 L 63.609375 44.558594 L 63.609375 54.085938 L 54.085938 54.085938 Z M 54.085938 44.558594 "/>
</g>
<path style=" stroke:none;fill-rule:nonzero;fill:rgb(45.878601%,50.19989%,61.178589%);fill-opacity:1;" d="M 54.085938 63.609375 L 63.609375 63.609375 L 63.609375 73.136719 L 54.085938 73.136719 Z M 54.085938 63.609375 "/>
<path style=" stroke:none;fill-rule:nonzero;fill:rgb(45.878601%,50.19989%,61.178589%);fill-opacity:1;" d="M 63.609375 54.085938 L 73.136719 54.085938 L 73.136719 63.609375 L 63.609375 63.609375 Z M 63.609375 54.085938 "/>
<g clip-path="url(#clip5)" clip-rule="nonzero">
<path style=" stroke:none;fill-rule:nonzero;fill:rgb(45.878601%,50.19989%,61.178589%);fill-opacity:1;" d="M 44.558594 54.085938 L 54.085938 54.085938 L 54.085938 63.609375 L 44.558594 63.609375 Z M 44.558594 54.085938 "/>
</g>
<path style=" stroke:none;fill-rule:nonzero;fill:rgb(45.878601%,50.19989%,61.178589%);fill-opacity:1;" d="M 311.261719 301.734375 L 320.785156 301.734375 L 320.785156 311.261719 L 311.261719 311.261719 Z M 311.261719 301.734375 "/>
<g clip-path="url(#clip6)" clip-rule="nonzero">
<path style=" stroke:none;fill-rule:nonzero;fill:rgb(45.878601%,50.19989%,61.178589%);fill-opacity:1;" d="M 311.261719 320.785156 L 320.785156 320.785156 L 320.785156 330.308594 L 311.261719 330.308594 Z M 311.261719 320.785156 "/>
</g>
<g clip-path="url(#clip7)" clip-rule="nonzero">
<path style=" stroke:none;fill-rule:nonzero;fill:rgb(45.878601%,50.19989%,61.178589%);fill-opacity:1;" d="M 320.785156 311.261719 L 330.308594 311.261719 L 330.308594 320.785156 L 320.785156 320.785156 Z M 320.785156 311.261719 "/>
</g>
<path style=" stroke:none;fill-rule:nonzero;fill:rgb(45.878601%,50.19989%,61.178589%);fill-opacity:1;" d="M 301.734375 311.261719 L 311.261719 311.261719 L 311.261719 320.785156 L 301.734375 320.785156 Z M 301.734375 311.261719 "/>
<path style=" stroke:none;fill-rule:nonzero;fill:rgb(45.878601%,50.19989%,61.178589%);fill-opacity:1;" d="M 54.085938 301.734375 L 63.609375 301.734375 L 63.609375 311.261719 L 54.085938 311.261719 Z M 54.085938 301.734375 "/>
<g clip-path="url(#clip8)" clip-rule="nonzero">
<path style=" stroke:none;fill-rule:nonzero;fill:rgb(45.878601%,50.19989%,61.178589%);fill-opacity:1;" d="M 54.085938 320.785156 L 63.609375 320.785156 L 63.609375 330.308594 L 54.085938 330.308594 Z M 54.085938 320.785156 "/>
</g>
<path style=" stroke:none;fill-rule:nonzero;fill:rgb(45.878601%,50.19989%,61.178589%);fill-opacity:1;" d="M 63.609375 311.261719 L 73.136719 311.261719 L 73.136719 320.785156 L 63.609375 320.785156 Z M 63.609375 311.261719 "/>
<g clip-path="url(#clip9)" clip-rule="nonzero">
<path style=" stroke:none;fill-rule:nonzero;fill:rgb(45.878601%,50.19989%,61.178589%);fill-opacity:1;" d="M 44.558594 311.261719 L 54.085938 311.261719 L 54.085938 320.785156 L 44.558594 320.785156 Z M 44.558594 311.261719 "/>
</g>
</g>
</svg>
