<?xml version="1.0" encoding="UTF-8"?>
<svg xmlns="http://www.w3.org/2000/svg" xmlns:xlink="http://www.w3.org/1999/xlink" width="375pt" height="374.999991pt" viewBox="0 0 375 374.999991" version="1.2">
<defs>
<clipPath id="clip1">
  <path d="M 228 156 L 342.527344 156 L 342.527344 342.527344 L 228 342.527344 Z M 228 156 "/>
</clipPath>
<clipPath id="clip2">
  <path d="M 32.777344 156 L 147 156 L 147 342.527344 L 32.777344 342.527344 Z M 32.777344 156 "/>
</clipPath>
<clipPath id="clip3">
  <path d="M 79 32.777344 L 297 32.777344 L 297 250 L 79 250 Z M 79 32.777344 "/>
</clipPath>
</defs>
<g id="surface1">
<path style=" stroke:none;fill-rule:nonzero;fill:rgb(86.268616%,86.669922%,87.449646%);fill-opacity:1;" d="M 99.636719 251.527344 C 95.183594 248.394531 89.5 248.082031 84.816406 250.355469 L 84.402344 249.601562 L 71.367188 175.722656 C 69.949219 167.695312 62.972656 161.839844 54.816406 161.839844 C 45.539062 161.839844 38.019531 169.355469 38.011719 178.628906 L 37.941406 272.824219 C 37.941406 286.230469 43.835938 298.554688 53.292969 304.910156 L 89.566406 328 L 89.566406 337.367188 L 141.191406 337.367188 L 141.191406 280.753906 Z M 99.636719 251.527344 "/>
<path style=" stroke:none;fill-rule:nonzero;fill:rgb(86.268616%,86.669922%,87.449646%);fill-opacity:1;" d="M 275.667969 251.527344 C 280.125 248.394531 285.808594 248.082031 290.492188 250.355469 L 290.902344 249.601562 L 303.9375 175.722656 C 305.359375 167.695312 312.332031 161.839844 320.488281 161.839844 C 329.765625 161.839844 337.289062 169.355469 337.292969 178.628906 L 337.367188 272.824219 C 337.367188 286.230469 331.46875 298.554688 322.011719 304.910156 L 285.742188 328 L 285.742188 337.367188 L 234.117188 337.367188 L 234.117188 280.753906 Z M 275.667969 251.527344 "/>
<path style=" stroke:none;fill-rule:nonzero;fill:rgb(83.918762%,76.469421%,70.199585%);fill-opacity:1;" d="M 290.902344 141.191406 C 290.902344 142.878906 290.863281 144.570312 290.777344 146.257812 C 290.695312 147.945312 290.570312 149.628906 290.40625 151.3125 C 290.242188 152.992188 290.035156 154.667969 289.785156 156.339844 C 289.539062 158.011719 289.25 159.675781 288.917969 161.332031 C 288.589844 162.992188 288.21875 164.640625 287.808594 166.277344 C 287.398438 167.917969 286.949219 169.546875 286.457031 171.164062 C 285.96875 172.78125 285.4375 174.382812 284.867188 175.976562 C 284.296875 177.566406 283.691406 179.140625 283.042969 180.703125 C 282.398438 182.265625 281.710938 183.808594 280.988281 185.335938 C 280.269531 186.863281 279.507812 188.371094 278.710938 189.863281 C 277.914062 191.351562 277.082031 192.824219 276.214844 194.273438 C 275.34375 195.722656 274.441406 197.148438 273.503906 198.554688 C 272.5625 199.957031 271.589844 201.339844 270.585938 202.695312 C 269.578125 204.054688 268.539062 205.386719 267.464844 206.691406 C 266.394531 208 265.292969 209.277344 264.15625 210.527344 C 263.023438 211.78125 261.855469 213.003906 260.660156 214.199219 C 259.46875 215.394531 258.242188 216.558594 256.992188 217.695312 C 255.738281 218.828125 254.460938 219.933594 253.15625 221.003906 C 251.847656 222.074219 250.515625 223.117188 249.160156 224.121094 C 247.800781 225.128906 246.421875 226.101562 245.015625 227.039062 C 243.609375 227.980469 242.183594 228.882812 240.734375 229.75 C 239.285156 230.621094 237.816406 231.453125 236.324219 232.25 C 234.835938 233.046875 233.324219 233.804688 231.796875 234.527344 C 230.269531 235.25 228.726562 235.933594 227.164062 236.582031 C 225.605469 237.226562 224.027344 237.835938 222.4375 238.40625 C 220.847656 238.972656 219.242188 239.503906 217.625 239.996094 C 216.007812 240.484375 214.378906 240.9375 212.742188 241.347656 C 211.101562 241.757812 209.453125 242.128906 207.796875 242.457031 C 206.140625 242.785156 204.476562 243.074219 202.804688 243.324219 C 201.132812 243.570312 199.457031 243.777344 197.773438 243.945312 C 196.09375 244.109375 194.40625 244.234375 192.71875 244.316406 C 191.03125 244.398438 189.34375 244.441406 187.652344 244.441406 C 185.964844 244.441406 184.273438 244.398438 182.585938 244.316406 C 180.898438 244.234375 179.214844 244.109375 177.53125 243.945312 C 175.851562 243.777344 174.175781 243.570312 172.503906 243.324219 C 170.832031 243.074219 169.167969 242.785156 167.511719 242.457031 C 165.851562 242.128906 164.203125 241.757812 162.566406 241.347656 C 160.925781 240.9375 159.296875 240.484375 157.679688 239.996094 C 156.0625 239.503906 154.460938 238.972656 152.871094 238.40625 C 151.277344 237.835938 149.703125 237.226562 148.140625 236.582031 C 146.578125 235.933594 145.035156 235.25 143.507812 234.527344 C 141.980469 233.804688 140.472656 233.046875 138.980469 232.25 C 137.492188 231.453125 136.023438 230.621094 134.570312 229.75 C 133.121094 228.882812 131.695312 227.980469 130.289062 227.039062 C 128.886719 226.101562 127.503906 225.128906 126.148438 224.121094 C 124.789062 223.117188 123.457031 222.074219 122.152344 221.003906 C 120.847656 219.933594 119.566406 218.828125 118.316406 217.695312 C 117.0625 216.558594 115.839844 215.394531 114.644531 214.199219 C 113.449219 213.003906 112.285156 211.78125 111.148438 210.527344 C 110.015625 209.277344 108.910156 208 107.839844 206.691406 C 106.769531 205.386719 105.730469 204.054688 104.722656 202.695312 C 103.714844 201.339844 102.742188 199.957031 101.804688 198.554688 C 100.867188 197.148438 99.960938 195.722656 99.09375 194.273438 C 98.222656 192.824219 97.390625 191.351562 96.59375 189.863281 C 95.796875 188.371094 95.039062 186.863281 94.316406 185.335938 C 93.59375 183.808594 92.910156 182.265625 92.261719 180.703125 C 91.617188 179.140625 91.007812 177.566406 90.4375 175.976562 C 89.871094 174.382812 89.339844 172.78125 88.847656 171.164062 C 88.359375 169.546875 87.90625 167.917969 87.496094 166.277344 C 87.085938 164.640625 86.71875 162.992188 86.386719 161.332031 C 86.058594 159.675781 85.769531 158.011719 85.519531 156.339844 C 85.273438 154.667969 85.066406 152.992188 84.902344 151.3125 C 84.734375 149.628906 84.609375 147.945312 84.527344 146.257812 C 84.445312 144.570312 84.402344 142.878906 84.402344 141.191406 C 84.402344 139.5 84.445312 137.8125 84.527344 136.125 C 84.609375 134.4375 84.734375 132.753906 84.902344 131.070312 C 85.066406 129.390625 85.273438 127.710938 85.519531 126.039062 C 85.769531 124.371094 86.058594 122.703125 86.386719 121.046875 C 86.71875 119.390625 87.085938 117.742188 87.496094 116.101562 C 87.90625 114.464844 88.359375 112.835938 88.847656 111.21875 C 89.339844 109.601562 89.871094 107.996094 90.4375 106.40625 C 91.007812 104.816406 91.617188 103.238281 92.261719 101.679688 C 92.910156 100.117188 93.59375 98.574219 94.316406 97.046875 C 95.039062 95.519531 95.796875 94.007812 96.59375 92.519531 C 97.390625 91.027344 98.222656 89.558594 99.09375 88.109375 C 99.960938 86.660156 100.867188 85.234375 101.804688 83.828125 C 102.742188 82.421875 103.714844 81.042969 104.722656 79.683594 C 105.730469 78.328125 106.769531 76.996094 107.839844 75.691406 C 108.910156 74.382812 110.015625 73.105469 111.148438 71.851562 C 112.285156 70.601562 113.449219 69.375 114.644531 68.183594 C 115.839844 66.988281 117.0625 65.824219 118.316406 64.6875 C 119.566406 63.554688 120.847656 62.449219 122.152344 61.378906 C 123.457031 60.304688 124.789062 59.265625 126.148438 58.257812 C 127.503906 57.253906 128.886719 56.28125 130.289062 55.339844 C 131.695312 54.402344 133.121094 53.5 134.570312 52.628906 C 136.023438 51.761719 137.492188 50.929688 138.980469 50.132812 C 140.472656 49.335938 141.980469 48.578125 143.507812 47.855469 C 145.035156 47.132812 146.578125 46.445312 148.140625 45.800781 C 149.703125 45.152344 151.277344 44.546875 152.871094 43.976562 C 154.460938 43.40625 156.0625 42.878906 157.679688 42.386719 C 159.296875 41.894531 160.925781 41.445312 162.566406 41.035156 C 164.203125 40.625 165.851562 40.253906 167.511719 39.925781 C 169.167969 39.59375 170.832031 39.304688 172.503906 39.058594 C 174.175781 38.808594 175.851562 38.605469 177.53125 38.4375 C 179.214844 38.273438 180.898438 38.148438 182.585938 38.066406 C 184.273438 37.980469 185.964844 37.941406 187.652344 37.941406 C 189.34375 37.941406 191.03125 37.980469 192.71875 38.066406 C 194.40625 38.148438 196.09375 38.273438 197.773438 38.4375 C 199.457031 38.605469 201.132812 38.808594 202.804688 39.058594 C 204.476562 39.304688 206.140625 39.59375 207.796875 39.925781 C 209.453125 40.253906 211.101562 40.625 212.742188 41.035156 C 214.378906 41.445312 216.007812 41.894531 217.625 42.386719 C 219.242188 42.878906 220.847656 43.40625 222.4375 43.976562 C 224.027344 44.546875 225.605469 45.152344 227.164062 45.800781 C 228.726562 46.445312 230.269531 47.132812 231.796875 47.855469 C 233.324219 48.578125 234.835938 49.335938 236.324219 50.132812 C 237.816406 50.929688 239.285156 51.761719 240.734375 52.628906 C 242.183594 53.5 243.609375 54.402344 245.015625 55.339844 C 246.421875 56.28125 247.800781 57.253906 249.160156 58.257812 C 250.515625 59.265625 251.847656 60.304688 253.15625 61.378906 C 254.460938 62.449219 255.738281 63.554688 256.992188 64.6875 C 258.242188 65.824219 259.46875 66.988281 260.660156 68.183594 C 261.855469 69.375 263.023438 70.601562 264.15625 71.851562 C 265.292969 73.105469 266.394531 74.382812 267.464844 75.691406 C 268.539062 76.996094 269.578125 78.328125 270.585938 79.683594 C 271.589844 81.042969 272.5625 82.421875 273.503906 83.828125 C 274.441406 85.234375 275.34375 86.660156 276.214844 88.109375 C 277.082031 89.558594 277.914062 91.027344 278.710938 92.519531 C 279.507812 94.007812 280.269531 95.519531 280.988281 97.046875 C 281.710938 98.574219 282.398438 100.117188 283.042969 101.679688 C 283.691406 103.238281 284.296875 104.816406 284.867188 106.40625 C 285.4375 107.996094 285.96875 109.601562 286.457031 111.21875 C 286.949219 112.835938 287.398438 114.464844 287.808594 116.101562 C 288.21875 117.742188 288.589844 119.390625 288.917969 121.046875 C 289.25 122.703125 289.539062 124.371094 289.785156 126.039062 C 290.035156 127.710938 290.242188 129.390625 290.40625 131.070312 C 290.570312 132.753906 290.695312 134.4375 290.777344 136.125 C 290.863281 137.8125 290.902344 139.5 290.902344 141.191406 Z M 290.902344 141.191406 "/>
<path style=" stroke:none;fill-rule:nonzero;fill:rgb(90.19928%,79.219055%,77.648926%);fill-opacity:1;" d="M 259.929688 120.539062 C 259.929688 105.1875 249.132812 92.476562 234.984375 90.023438 C 234.984375 89.871094 235.003906 89.71875 235.003906 89.566406 C 235.003906 72.457031 221.613281 58.589844 205.097656 58.589844 C 198.582031 58.589844 192.566406 60.773438 187.652344 64.441406 C 182.738281 60.773438 176.722656 58.589844 170.210938 58.589844 C 153.695312 58.589844 140.304688 72.457031 140.304688 89.566406 C 140.304688 89.71875 140.324219 89.871094 140.324219 90.023438 C 126.171875 92.476562 115.378906 105.1875 115.378906 120.539062 C 115.378906 128.484375 118.289062 135.707031 123.039062 141.191406 C 118.289062 146.671875 115.378906 153.894531 115.378906 161.839844 C 115.378906 177.195312 126.171875 189.902344 140.324219 192.355469 C 140.324219 192.511719 140.304688 192.660156 140.304688 192.816406 C 140.304688 209.925781 153.695312 223.789062 170.210938 223.789062 C 176.730469 223.789062 182.742188 221.605469 187.652344 217.941406 C 192.566406 221.605469 198.582031 223.789062 205.097656 223.789062 C 221.613281 223.789062 235.003906 209.925781 235.003906 192.816406 C 235.003906 192.660156 234.984375 192.511719 234.984375 192.355469 C 249.132812 189.902344 259.929688 177.195312 259.929688 161.839844 C 259.929688 153.894531 257.015625 146.671875 252.265625 141.191406 C 257.015625 135.707031 259.929688 128.484375 259.929688 120.539062 Z M 259.929688 120.539062 "/>
<g clip-path="url(#clip1)" clip-rule="nonzero">
<path style=" stroke:none;fill-rule:nonzero;fill:rgb(45.878601%,50.19989%,61.178589%);fill-opacity:1;" d="M 285.742188 342.527344 L 234.117188 342.527344 C 231.265625 342.527344 228.953125 340.214844 228.953125 337.367188 L 228.953125 280.753906 C 228.953125 279.070312 229.769531 277.496094 231.148438 276.53125 L 272.699219 247.300781 C 276.902344 244.34375 281.90625 243.210938 286.679688 243.851562 L 298.859375 174.824219 C 300.710938 164.3125 309.808594 156.679688 320.488281 156.679688 C 332.589844 156.679688 342.445312 166.523438 342.457031 178.625 L 342.527344 272.820312 C 342.527344 287.949219 335.769531 301.882812 324.886719 309.195312 L 290.902344 330.835938 L 290.902344 337.367188 C 290.902344 340.214844 288.589844 342.527344 285.742188 342.527344 Z M 239.277344 332.203125 L 280.578125 332.203125 L 280.578125 328 C 280.578125 326.234375 281.480469 324.59375 282.96875 323.644531 L 319.242188 300.550781 C 327.195312 295.203125 332.203125 284.554688 332.203125 272.824219 L 332.132812 178.632812 C 332.125 172.222656 326.902344 167.003906 320.488281 167.003906 C 314.832031 167.003906 310.007812 171.050781 309.023438 176.621094 L 296.425781 248.003906 C 297.003906 248.46875 297.5625 248.96875 298.101562 249.5 C 302.164062 253.5625 304.257812 259.179688 303.851562 264.910156 C 303.441406 270.640625 300.574219 275.90625 295.976562 279.355469 L 268.1875 300.195312 L 261.992188 291.9375 L 289.78125 271.09375 C 291.980469 269.441406 293.355469 266.921875 293.550781 264.175781 C 293.746094 261.429688 292.742188 258.746094 290.800781 256.800781 C 287.527344 253.53125 282.417969 253.09375 278.636719 255.746094 L 239.277344 283.433594 Z M 239.277344 332.203125 "/>
</g>
<g clip-path="url(#clip2)" clip-rule="nonzero">
<path style=" stroke:none;fill-rule:nonzero;fill:rgb(45.878601%,50.19989%,61.178589%);fill-opacity:1;" d="M 141.191406 342.527344 L 89.566406 342.527344 C 86.714844 342.527344 84.402344 340.214844 84.402344 337.367188 L 84.402344 330.835938 L 50.523438 309.265625 C 39.535156 301.882812 32.777344 287.949219 32.777344 272.824219 L 32.851562 178.625 C 32.859375 166.523438 42.714844 156.679688 54.816406 156.679688 C 65.5 156.679688 74.59375 164.3125 76.449219 174.828125 L 88.625 243.859375 C 93.394531 243.21875 98.398438 244.347656 102.605469 247.304688 L 144.160156 276.535156 C 145.539062 277.496094 146.351562 279.070312 146.351562 280.753906 L 146.351562 337.367188 C 146.351562 340.214844 144.039062 342.527344 141.191406 342.527344 Z M 94.726562 332.203125 L 136.027344 332.203125 L 136.027344 283.433594 L 96.667969 255.746094 C 92.886719 253.089844 87.773438 253.53125 84.507812 256.800781 C 82.566406 258.746094 81.558594 261.429688 81.753906 264.175781 C 81.949219 266.921875 83.324219 269.441406 85.523438 271.09375 L 113.3125 291.9375 L 107.117188 300.195312 L 79.328125 279.355469 C 74.734375 275.90625 71.863281 270.640625 71.457031 264.910156 C 71.046875 259.179688 73.144531 253.5625 77.207031 249.5 C 77.742188 248.964844 78.300781 248.46875 78.878906 248.003906 L 66.28125 176.621094 C 65.296875 171.050781 60.476562 167.003906 54.816406 167.003906 C 48.40625 167.003906 43.179688 172.222656 43.175781 178.632812 L 43.101562 272.828125 C 43.101562 284.554688 48.109375 295.203125 56.175781 300.625 L 92.339844 323.644531 C 93.824219 324.59375 94.726562 326.234375 94.726562 328 Z M 94.726562 332.203125 "/>
</g>
<g clip-path="url(#clip3)" clip-rule="nonzero">
<path style=" stroke:none;fill-rule:nonzero;fill:rgb(45.878601%,50.19989%,61.178589%);fill-opacity:1;" d="M 187.761719 249.601562 L 187.652344 249.601562 C 180.585938 249.601562 173.511719 248.917969 166.632812 247.5625 L 168.625 237.429688 C 174.851562 238.660156 181.25 239.277344 187.652344 239.277344 Z M 208.902344 247.523438 L 206.890625 237.394531 C 213.167969 236.144531 219.351562 234.269531 225.265625 231.808594 L 229.230469 241.34375 C 222.6875 244.0625 215.84375 246.140625 208.902344 247.523438 Z M 146.292969 241.429688 C 139.75 238.730469 133.445312 235.363281 127.550781 231.425781 L 133.28125 222.839844 C 138.613281 226.398438 144.320312 229.445312 150.234375 231.886719 Z M 247.953125 231.300781 L 242.199219 222.726562 C 247.523438 219.160156 252.519531 215.050781 257.046875 210.511719 L 264.351562 217.8125 C 259.34375 222.820312 253.828125 227.359375 247.953125 231.300781 Z M 111.113281 217.972656 C 106.101562 212.976562 101.554688 207.460938 97.605469 201.585938 L 106.171875 195.824219 C 109.746094 201.148438 113.867188 206.140625 118.402344 210.667969 Z M 277.828125 201.394531 L 269.242188 195.660156 C 272.808594 190.316406 275.863281 184.617188 278.308594 178.710938 L 287.847656 182.667969 C 285.140625 189.1875 281.769531 195.488281 277.828125 201.394531 Z M 87.542969 182.871094 C 84.820312 176.34375 82.730469 169.5 81.34375 162.546875 L 91.464844 160.523438 C 92.726562 166.8125 94.609375 172.996094 97.066406 178.902344 Z M 294.007812 162.320312 L 283.878906 160.316406 C 285.109375 154.0625 285.742188 147.625 285.742188 141.191406 L 296.066406 140.753906 L 296.066406 141.191406 C 296.066406 148.289062 295.375 155.402344 294.007812 162.320312 Z M 79.242188 141.40625 L 79.242188 141.191406 C 79.242188 134.164062 79.917969 127.128906 81.253906 120.28125 L 91.386719 122.261719 C 90.179688 128.460938 89.566406 134.832031 89.566406 141.191406 Z M 283.800781 121.65625 C 282.53125 115.375 280.628906 109.195312 278.152344 103.292969 L 287.675781 99.300781 C 290.414062 105.832031 292.515625 112.667969 293.917969 119.613281 Z M 96.917969 103.867188 L 87.367188 99.933594 C 90.054688 93.394531 93.417969 87.085938 97.351562 81.183594 L 105.945312 86.902344 C 102.382812 92.25 99.347656 97.953125 96.917969 103.867188 Z M 269.019531 86.386719 C 265.429688 81.074219 261.308594 76.089844 256.757812 71.574219 L 264.03125 64.25 C 269.0625 69.234375 273.613281 74.746094 277.578125 80.609375 Z M 118.109375 72.011719 L 110.789062 64.734375 C 115.792969 59.707031 121.300781 55.152344 127.164062 51.203125 L 132.929688 59.773438 C 127.628906 63.339844 122.636719 67.460938 118.109375 72.011719 Z M 241.855469 59.425781 C 236.507812 55.875 230.796875 52.84375 224.878906 50.414062 L 228.804688 40.863281 C 235.34375 43.546875 241.65625 46.898438 247.5625 50.820312 Z M 149.847656 50.652344 L 145.867188 41.125 C 152.398438 38.394531 159.234375 36.300781 166.1875 34.90625 L 168.222656 45.027344 C 161.933594 46.289062 155.753906 48.183594 149.847656 50.652344 Z M 206.476562 44.90625 C 200.320312 43.710938 193.988281 43.101562 187.652344 43.101562 L 187.328125 32.777344 L 187.652344 32.777344 C 194.644531 32.777344 201.636719 33.449219 208.449219 34.769531 Z M 206.476562 44.90625 "/>
</g>
<path style=" stroke:none;fill-rule:nonzero;fill:rgb(45.878601%,50.19989%,61.178589%);fill-opacity:1;" d="M 265.089844 120.539062 C 265.089844 104.691406 255.246094 87.695312 239 84.828125 C 236.867188 66.875 222.742188 53.429688 205.097656 53.429688 C 198.921875 53.429688 192.957031 55.082031 187.652344 58.238281 C 182.351562 55.082031 176.382812 53.429688 170.210938 53.429688 C 152.066406 53.429688 137.097656 67.699219 135.316406 85.914062 C 120.546875 90.386719 110.214844 104.320312 110.214844 120.539062 C 110.214844 127.953125 112.441406 135.144531 116.539062 141.191406 C 112.441406 147.234375 110.214844 154.425781 110.214844 161.839844 C 110.214844 177.691406 120.0625 194.683594 136.308594 197.554688 C 138.4375 215.503906 152.5625 228.953125 170.210938 228.953125 C 176.390625 228.953125 182.351562 227.300781 187.652344 224.140625 C 192.957031 227.300781 198.921875 228.953125 205.097656 228.953125 C 223.238281 228.953125 238.210938 214.683594 239.992188 196.464844 C 254.761719 191.996094 265.089844 178.0625 265.089844 161.839844 C 265.089844 154.425781 262.867188 147.234375 258.765625 141.191406 C 262.867188 135.144531 265.089844 127.953125 265.089844 120.539062 Z M 146.746094 197.121094 C 155.421875 194.679688 161.839844 186.78125 161.839844 177.328125 C 161.839844 165.941406 152.578125 156.679688 141.191406 156.679688 L 141.191406 167.003906 C 146.886719 167.003906 151.515625 171.632812 151.515625 177.328125 C 151.515625 183.023438 146.886719 187.652344 141.191406 187.652344 C 128.835938 187.652344 120.539062 174.308594 120.539062 161.839844 C 120.539062 155.46875 122.8125 149.335938 126.941406 144.566406 C 128.625 142.632812 128.625 139.75 126.941406 137.808594 C 122.8125 133.042969 120.539062 126.910156 120.539062 120.539062 C 120.539062 107.882812 129.234375 97.191406 141.207031 95.117188 C 143.679688 94.6875 145.464844 92.078125 145.464844 89.566406 C 145.464844 75.332031 156.566406 63.753906 170.210938 63.753906 C 174.5625 63.753906 178.742188 65.003906 182.492188 67.269531 L 182.492188 99.890625 C 182.492188 105.585938 177.859375 110.214844 172.164062 110.214844 C 166.472656 110.214844 161.839844 105.585938 161.839844 99.890625 L 151.515625 99.890625 C 151.515625 111.277344 160.777344 120.539062 172.164062 120.539062 C 175.945312 120.539062 179.441406 119.445312 182.492188 117.671875 L 182.492188 215.117188 C 178.742188 217.378906 174.5625 218.628906 170.210938 218.628906 C 158.203125 218.628906 148.59375 209.464844 146.746094 197.121094 Z M 248.363281 144.566406 C 252.496094 149.335938 254.765625 155.46875 254.765625 161.839844 C 254.765625 174.5 246.070312 185.191406 234.101562 187.265625 C 231.628906 187.695312 229.839844 190.300781 229.839844 192.816406 C 229.839844 207.046875 218.742188 218.628906 205.097656 218.628906 C 200.746094 218.628906 196.5625 217.378906 192.816406 215.113281 L 192.816406 156.679688 C 192.816406 150.984375 197.445312 146.351562 203.140625 146.351562 C 208.835938 146.351562 213.464844 150.984375 213.464844 156.679688 L 223.789062 156.679688 C 223.789062 145.289062 214.527344 136.027344 203.140625 136.027344 C 199.363281 136.027344 195.867188 137.121094 192.816406 138.898438 L 192.816406 67.269531 C 196.5625 65.003906 200.746094 63.753906 205.097656 63.753906 C 217.105469 63.753906 226.707031 72.917969 228.5625 85.261719 C 219.882812 87.703125 213.464844 95.601562 213.464844 105.054688 C 213.464844 116.441406 222.726562 125.703125 234.117188 125.703125 L 234.117188 115.378906 C 228.421875 115.378906 223.789062 110.746094 223.789062 105.054688 C 223.789062 99.359375 228.421875 94.726562 234.117188 94.726562 C 246.46875 94.726562 254.765625 108.074219 254.765625 120.539062 C 254.765625 126.910156 252.496094 133.042969 248.363281 137.816406 C 246.6875 139.75 246.6875 142.632812 248.363281 144.566406 Z M 248.363281 144.566406 "/>
</g>
</svg>
