<?xml version="1.0" encoding="UTF-8"?>
<svg xmlns="http://www.w3.org/2000/svg" xmlns:xlink="http://www.w3.org/1999/xlink" width="375pt" height="374.999991pt" viewBox="0 0 375 374.999991" version="1.2">
<defs>
<clipPath id="clip1">
  <path d="M 112.980469 75 L 262.199219 75 L 262.199219 300 L 112.980469 300 Z M 112.980469 75 "/>
</clipPath>
</defs>
<g id="surface1">
<path style=" stroke:none;fill-rule:nonzero;fill:rgb(100%,100%,100%);fill-opacity:1;" d="M 224.359375 195.101562 C 227.699219 197.730469 225.699219 206.804688 218.867188 204.847656 C 213.976562 202.589844 220.230469 191.855469 224.359375 195.101562 "/>
<path style=" stroke:none;fill-rule:nonzero;fill:rgb(100%,100%,100%);fill-opacity:1;" d="M 202.394531 199.976562 C 204.316406 199.683594 204.777344 200.84375 206.054688 201.191406 C 205.796875 208.402344 197.996094 213.546875 189.582031 214.597656 C 178.804688 215.945312 164.34375 212.980469 165.179688 203.632812 C 168.667969 201.808594 170.113281 206.460938 173.71875 207.898438 C 183.1875 211.664062 198.453125 208.558594 201.175781 201.191406 C 201.328125 200.535156 202.386719 200.777344 202.394531 199.976562 "/>
<g clip-path="url(#clip1)" clip-rule="nonzero">
<path style=" stroke:none;fill-rule:nonzero;fill:rgb(100%,100%,100%);fill-opacity:1;" d="M 262.183594 217.039062 C 262.753906 247.214844 247.300781 272.261719 231.679688 285.28125 C 227.320312 288.914062 221.582031 292.816406 216.425781 295.03125 C 186.480469 307.890625 151.40625 293.519531 134.0625 277.96875 C 114.464844 260.398438 108.4375 225.347656 116.371094 190.835938 C 118.882812 179.90625 123.738281 168.703125 127.964844 157.933594 C 138.269531 131.65625 153.65625 111.5625 170.058594 89.6875 C 173.085938 85.648438 178.085938 78.484375 181.039062 75.0625 C 187.277344 74.128906 191.992188 83.695312 196.292969 88.46875 C 209.476562 103.105469 223.367188 118.539062 233.507812 134.777344 C 248.296875 158.457031 261.574219 184.828125 262.183594 217.039062 Z M 182.261719 84.203125 C 167.039062 102.105469 155.019531 123.210938 141.386719 142.699219 C 123.433594 180.972656 105.503906 241.800781 138.945312 273.09375 C 147.347656 280.957031 167.113281 291.046875 182.871094 292.59375 C 213.808594 295.632812 229.589844 279.847656 241.441406 263.347656 C 251.058594 249.949219 256.964844 235.449219 255.472656 214.597656 C 251.109375 153.746094 211.695312 118.757812 182.871094 83.59375 C 182.496094 83.628906 182.152344 83.6875 182.261719 84.203125 "/>
</g>
<path style=" stroke:none;fill-rule:nonzero;fill:rgb(100%,100%,100%);fill-opacity:1;" d="M 169.449219 128.683594 C 171.894531 129.851562 175.800781 129.542969 174.941406 125.640625 C 173.234375 124.691406 169.46875 126.015625 169.449219 128.683594 Z M 165.179688 130.511719 C 163.78125 122.503906 172.019531 119.386719 177.988281 122.59375 C 179.515625 126.242188 178.246094 131.023438 176.160156 132.949219 C 172.15625 134.488281 166.679688 133.386719 165.179688 130.511719 "/>
<path style=" stroke:none;fill-rule:nonzero;fill:rgb(100%,100%,100%);fill-opacity:1;" d="M 157.855469 150.011719 C 158.636719 147.523438 161.199219 146.339844 159.6875 143.917969 C 157.574219 143.429688 157.339844 144.824219 155.414062 144.527344 C 151.699219 151.800781 146.257812 160.535156 148.097656 171.335938 C 155.8125 169.742188 155.609375 157.183594 157.855469 150.011719 Z M 152.976562 140.871094 C 155.570312 138.371094 163.457031 139.203125 164.570312 143.917969 C 165.378906 147.367188 162.382812 149.894531 161.519531 152.449219 C 158.824219 160.421875 158.121094 171.394531 152.976562 176.210938 C 149.359375 176.371094 146.117188 176.15625 143.824219 174.992188 C 140.566406 165.371094 148.382812 145.304688 152.976562 140.871094 "/>
<path style=" stroke:none;fill-rule:nonzero;fill:rgb(100%,100%,100%);fill-opacity:1;" d="M 141.386719 206.070312 C 141.964844 196.035156 157.085938 203.589844 148.707031 212.160156 C 143.535156 212.878906 141.199219 209.277344 141.386719 206.070312 "/>
</g>
</svg>
