<?xml version="1.0" encoding="UTF-8"?>
<svg xmlns="http://www.w3.org/2000/svg" xmlns:xlink="http://www.w3.org/1999/xlink" width="375pt" height="374.999991pt" viewBox="0 0 375 374.999991" version="1.2">
<defs>
<clipPath id="clip1">
  <path d="M 36.589844 165 L 59 165 L 59 210 L 36.589844 210 Z M 36.589844 165 "/>
</clipPath>
<clipPath id="clip2">
  <path d="M 316 165 L 338.089844 165 L 338.089844 210 L 316 210 Z M 316 165 "/>
</clipPath>
<clipPath id="clip3">
  <path d="M 82 119.214844 L 131 119.214844 L 131 255.714844 L 82 255.714844 Z M 82 119.214844 "/>
</clipPath>
<clipPath id="clip4">
  <path d="M 243 119.214844 L 293 119.214844 L 293 255.714844 L 243 255.714844 Z M 243 119.214844 "/>
</clipPath>
</defs>
<g id="surface1">
<path style=" stroke:none;fill-rule:nonzero;fill:rgb(86.268616%,86.669922%,87.449646%);fill-opacity:1;" d="M 40.71875 205.238281 L 54.667969 205.238281 L 54.667969 169.597656 L 40.71875 169.597656 L 40.71875 205.238281 "/>
<g clip-path="url(#clip1)" clip-rule="nonzero">
<path style=" stroke:none;fill-rule:nonzero;fill:rgb(45.878601%,50.19989%,61.178589%);fill-opacity:1;" d="M 44.769531 173.652344 L 50.617188 173.652344 L 50.617188 201.183594 L 44.769531 201.183594 Z M 36.667969 209.292969 L 58.71875 209.292969 L 58.71875 165.542969 L 36.667969 165.542969 L 36.667969 209.292969 "/>
</g>
<path style=" stroke:none;fill-rule:nonzero;fill:rgb(86.268616%,86.669922%,87.449646%);fill-opacity:1;" d="M 320.054688 205.238281 L 334 205.238281 L 334 169.597656 L 320.054688 169.597656 L 320.054688 205.238281 "/>
<g clip-path="url(#clip2)" clip-rule="nonzero">
<path style=" stroke:none;fill-rule:nonzero;fill:rgb(45.878601%,50.19989%,61.178589%);fill-opacity:1;" d="M 324.105469 173.652344 L 329.945312 173.652344 L 329.945312 201.183594 L 324.105469 201.183594 Z M 316 209.292969 L 338.050781 209.292969 L 338.050781 165.542969 L 316 165.542969 L 316 209.292969 "/>
</g>
<path style=" stroke:none;fill-rule:nonzero;fill:rgb(86.268616%,86.669922%,87.449646%);fill-opacity:1;" d="M 126.886719 205.238281 L 247.832031 205.238281 L 247.832031 169.597656 L 126.886719 169.597656 L 126.886719 205.238281 "/>
<path style=" stroke:none;fill-rule:nonzero;fill:rgb(45.878601%,50.19989%,61.178589%);fill-opacity:1;" d="M 130.941406 173.652344 L 243.78125 173.652344 L 243.78125 201.183594 L 130.941406 201.183594 Z M 122.835938 209.292969 L 251.886719 209.292969 L 251.886719 165.542969 L 122.835938 165.542969 L 122.835938 209.292969 "/>
<path style=" stroke:none;fill-rule:nonzero;fill:rgb(86.268616%,86.669922%,87.449646%);fill-opacity:1;" d="M 117.339844 123.261719 L 95.8125 123.261719 C 90.542969 123.261719 86.265625 127.539062 86.265625 132.8125 L 86.265625 242.101562 C 86.265625 247.378906 90.542969 251.65625 95.8125 251.65625 L 117.339844 251.65625 C 122.613281 251.65625 126.886719 247.378906 126.886719 242.101562 L 126.886719 132.8125 C 126.886719 127.539062 122.613281 123.261719 117.339844 123.261719 "/>
<g clip-path="url(#clip3)" clip-rule="nonzero">
<path style=" stroke:none;fill-rule:nonzero;fill:rgb(45.878601%,50.19989%,61.178589%);fill-opacity:1;" d="M 122.835938 242.101562 C 122.835938 245.132812 120.371094 247.597656 117.339844 247.597656 L 95.8125 247.597656 C 92.785156 247.597656 90.320312 245.132812 90.320312 242.101562 L 90.320312 132.8125 C 90.320312 129.785156 92.785156 127.316406 95.8125 127.316406 L 117.339844 127.316406 C 120.371094 127.316406 122.835938 129.785156 122.835938 132.8125 Z M 117.339844 119.207031 L 95.8125 119.207031 C 88.316406 119.207031 82.214844 125.3125 82.214844 132.8125 L 82.214844 242.101562 C 82.214844 249.605469 88.316406 255.707031 95.8125 255.707031 L 117.339844 255.707031 C 124.839844 255.707031 130.941406 249.605469 130.941406 242.101562 L 130.941406 132.8125 C 130.941406 125.3125 124.839844 119.207031 117.339844 119.207031 "/>
</g>
<path style=" stroke:none;fill-rule:nonzero;fill:rgb(86.268616%,86.669922%,87.449646%);fill-opacity:1;" d="M 78.550781 133.472656 L 62.386719 133.472656 C 58.121094 133.472656 54.667969 136.929688 54.667969 141.195312 L 54.667969 233.640625 C 54.667969 237.90625 58.121094 241.363281 62.386719 241.363281 L 78.550781 241.363281 C 82.8125 241.363281 86.265625 237.90625 86.265625 233.640625 L 86.265625 141.195312 C 86.265625 136.929688 82.8125 133.472656 78.550781 133.472656 "/>
<path style=" stroke:none;fill-rule:nonzero;fill:rgb(45.878601%,50.19989%,61.178589%);fill-opacity:1;" d="M 82.214844 233.640625 C 82.214844 235.664062 80.570312 237.308594 78.550781 237.308594 L 62.386719 237.308594 C 60.363281 237.308594 58.71875 235.664062 58.71875 233.640625 L 58.71875 141.195312 C 58.71875 139.175781 60.363281 137.527344 62.386719 137.527344 L 78.550781 137.527344 C 80.570312 137.527344 82.214844 139.175781 82.214844 141.195312 Z M 78.550781 129.421875 L 62.386719 129.421875 C 55.894531 129.421875 50.617188 134.703125 50.617188 141.195312 L 50.617188 233.640625 C 50.617188 240.136719 55.894531 245.417969 62.386719 245.417969 L 78.550781 245.417969 C 85.039062 245.417969 90.320312 240.136719 90.320312 233.640625 L 90.320312 141.195312 C 90.320312 134.703125 85.039062 129.421875 78.550781 129.421875 "/>
<path style=" stroke:none;fill-rule:nonzero;fill:rgb(86.268616%,86.669922%,87.449646%);fill-opacity:1;" d="M 278.90625 123.261719 L 257.378906 123.261719 C 252.105469 123.261719 247.832031 127.539062 247.832031 132.8125 L 247.832031 242.101562 C 247.832031 247.378906 252.105469 251.65625 257.378906 251.65625 L 278.90625 251.65625 C 284.175781 251.65625 288.453125 247.378906 288.453125 242.101562 L 288.453125 132.8125 C 288.453125 127.539062 284.175781 123.261719 278.90625 123.261719 "/>
<g clip-path="url(#clip4)" clip-rule="nonzero">
<path style=" stroke:none;fill-rule:nonzero;fill:rgb(45.878601%,50.19989%,61.178589%);fill-opacity:1;" d="M 284.398438 242.101562 C 284.398438 245.132812 281.9375 247.597656 278.90625 247.597656 L 257.378906 247.597656 C 254.347656 247.597656 251.886719 245.132812 251.886719 242.101562 L 251.886719 132.8125 C 251.886719 129.785156 254.347656 127.316406 257.378906 127.316406 L 278.90625 127.316406 C 281.9375 127.316406 284.398438 129.785156 284.398438 132.8125 Z M 278.90625 119.207031 L 257.378906 119.207031 C 249.878906 119.207031 243.78125 125.3125 243.78125 132.8125 L 243.78125 242.101562 C 243.78125 249.605469 249.878906 255.707031 257.378906 255.707031 L 278.90625 255.707031 C 286.402344 255.707031 292.503906 249.605469 292.503906 242.101562 L 292.503906 132.8125 C 292.503906 125.3125 286.402344 119.207031 278.90625 119.207031 "/>
</g>
<path style=" stroke:none;fill-rule:nonzero;fill:rgb(86.268616%,86.669922%,87.449646%);fill-opacity:1;" d="M 312.335938 133.550781 L 296.171875 133.550781 C 291.910156 133.550781 288.453125 137.011719 288.453125 141.277344 L 288.453125 233.722656 C 288.453125 237.988281 291.910156 241.445312 296.171875 241.445312 L 312.335938 241.445312 C 316.597656 241.445312 320.054688 237.988281 320.054688 233.722656 L 320.054688 141.277344 C 320.054688 137.011719 316.597656 133.550781 312.335938 133.550781 "/>
<path style=" stroke:none;fill-rule:nonzero;fill:rgb(45.878601%,50.19989%,61.178589%);fill-opacity:1;" d="M 316 233.722656 C 316 235.742188 314.355469 237.390625 312.335938 237.390625 L 296.171875 237.390625 C 294.148438 237.390625 292.503906 235.742188 292.503906 233.722656 L 292.503906 141.277344 C 292.503906 139.253906 294.148438 137.605469 296.171875 137.605469 L 312.335938 137.605469 C 314.355469 137.605469 316 139.253906 316 141.277344 Z M 312.335938 129.5 L 296.171875 129.5 C 289.683594 129.5 284.398438 134.78125 284.398438 141.277344 L 284.398438 233.722656 C 284.398438 240.214844 289.683594 245.496094 296.171875 245.496094 L 312.335938 245.496094 C 318.824219 245.496094 324.105469 240.214844 324.105469 233.722656 L 324.105469 141.277344 C 324.105469 134.78125 318.824219 129.5 312.335938 129.5 "/>
<path style=" stroke:none;fill-rule:nonzero;fill:rgb(45.878601%,50.19989%,61.178589%);fill-opacity:1;" d="M 104.210938 159.910156 L 108.941406 159.910156 L 108.941406 123.261719 L 104.210938 123.261719 L 104.210938 159.910156 "/>
<path style=" stroke:none;fill-rule:nonzero;fill:rgb(45.878601%,50.19989%,61.178589%);fill-opacity:1;" d="M 265.773438 159.910156 L 270.507812 159.910156 L 270.507812 123.261719 L 265.773438 123.261719 L 265.773438 159.910156 "/>
<path style=" stroke:none;fill-rule:nonzero;fill:rgb(45.878601%,50.19989%,61.178589%);fill-opacity:1;" d="M 301.886719 170.121094 L 306.617188 170.121094 L 306.617188 133.472656 L 301.886719 133.472656 L 301.886719 170.121094 "/>
<path style=" stroke:none;fill-rule:nonzero;fill:rgb(45.878601%,50.19989%,61.178589%);fill-opacity:1;" d="M 68.101562 170.121094 L 72.832031 170.121094 L 72.832031 133.472656 L 68.101562 133.472656 L 68.101562 170.121094 "/>
</g>
</svg>
