<?xml version="1.0" encoding="UTF-8"?>
<svg xmlns="http://www.w3.org/2000/svg" xmlns:xlink="http://www.w3.org/1999/xlink" width="375pt" height="374.999991pt" viewBox="0 0 375 374.999991" version="1.2">
<defs>
<clipPath id="clip1">
  <path d="M 43.085938 44 L 101 44 L 101 103 L 43.085938 103 Z M 43.085938 44 "/>
</clipPath>
<clipPath id="clip2">
  <path d="M 43.085938 140 L 140 140 L 140 237 L 43.085938 237 Z M 43.085938 140 "/>
</clipPath>
<clipPath id="clip3">
  <path d="M 182 129 L 331.835938 129 L 331.835938 332 L 182 332 Z M 182 129 "/>
</clipPath>
</defs>
<g id="surface1">
<path style=" stroke:none;fill-rule:nonzero;fill:rgb(86.268616%,86.669922%,87.449646%);fill-opacity:1;" d="M 271.679688 134.195312 C 241.117188 134.195312 216.335938 158.347656 216.335938 188.144531 L 216.335938 206.316406 L 187.460938 244.78125 L 216.335938 244.78125 L 216.335938 297.671875 L 274.085938 297.671875 L 274.085938 326.519531 L 327.023438 326.519531 L 327.023438 188.144531 C 327.023438 158.347656 302.246094 134.195312 271.679688 134.195312 Z M 271.679688 134.195312 "/>
<path style=" stroke:none;fill-rule:nonzero;fill:rgb(90.19928%,79.219055%,77.648926%);fill-opacity:1;" d="M 71.960938 80.519531 C 67.980469 80.519531 64.742188 77.285156 64.742188 73.308594 C 64.742188 69.332031 67.980469 66.09375 71.960938 66.09375 C 75.941406 66.09375 79.179688 69.332031 79.179688 73.308594 C 79.179688 77.285156 75.941406 80.519531 71.960938 80.519531 Z M 71.960938 80.519531 "/>
<g clip-path="url(#clip1)" clip-rule="nonzero">
<path style=" stroke:none;fill-rule:nonzero;fill:rgb(90.19928%,79.219055%,77.648926%);fill-opacity:1;" d="M 71.980469 102.136719 C 56.066406 102.136719 43.121094 89.199219 43.121094 73.289062 C 43.121094 57.378906 56.066406 44.4375 71.980469 44.4375 C 87.890625 44.4375 100.835938 57.378906 100.835938 73.289062 C 100.835938 89.199219 87.890625 102.136719 71.980469 102.136719 Z M 71.980469 54.054688 C 61.375 54.054688 52.746094 62.679688 52.746094 73.289062 C 52.746094 83.894531 61.375 92.519531 71.980469 92.519531 C 82.585938 92.519531 91.210938 83.894531 91.210938 73.289062 C 91.210938 62.679688 82.585938 54.054688 71.980469 54.054688 Z M 71.980469 54.054688 "/>
</g>
<path style=" stroke:none;fill-rule:nonzero;fill:rgb(90.19928%,79.219055%,77.648926%);fill-opacity:1;" d="M 71.960938 121.386719 C 64.425781 121.386719 57.226562 119.691406 50.554688 116.355469 L 54.867188 107.757812 C 60.183594 110.421875 65.9375 111.773438 71.957031 111.773438 C 93.183594 111.773438 110.457031 94.515625 110.457031 73.308594 C 110.457031 63.824219 106.972656 54.71875 100.648438 47.660156 L 107.820312 41.246094 C 115.730469 50.070312 120.085938 61.453125 120.085938 73.308594 C 120.085938 99.820312 98.496094 121.386719 71.960938 121.386719 Z M 71.960938 121.386719 "/>
<path style=" stroke:none;fill-rule:nonzero;fill:rgb(71.759033%,73.329163%,74.119568%);fill-opacity:1;" d="M 91.210938 195.921875 C 87.230469 195.921875 83.992188 192.6875 83.992188 188.710938 C 83.992188 184.734375 87.230469 181.5 91.210938 181.5 C 95.191406 181.5 98.429688 184.734375 98.429688 188.710938 C 98.429688 192.6875 95.191406 195.921875 91.210938 195.921875 Z M 91.210938 195.921875 "/>
<path style=" stroke:none;fill-rule:nonzero;fill:rgb(71.759033%,73.329163%,74.119568%);fill-opacity:1;" d="M 91.230469 217.539062 C 75.316406 217.539062 62.371094 204.601562 62.371094 188.691406 C 62.371094 172.78125 75.316406 159.84375 91.230469 159.84375 C 107.140625 159.84375 120.085938 172.78125 120.085938 188.691406 C 120.085938 204.601562 107.140625 217.539062 91.230469 217.539062 Z M 91.230469 169.460938 C 80.625 169.460938 71.996094 178.085938 71.996094 188.691406 C 71.996094 199.296875 80.625 207.925781 91.230469 207.925781 C 101.835938 207.925781 110.460938 199.296875 110.460938 188.691406 C 110.460938 178.085938 101.835938 169.460938 91.230469 169.460938 Z M 91.230469 169.460938 "/>
<g clip-path="url(#clip2)" clip-rule="nonzero">
<path style=" stroke:none;fill-rule:nonzero;fill:rgb(71.759033%,73.329163%,74.119568%);fill-opacity:1;" d="M 91.210938 236.78125 C 64.675781 236.78125 43.085938 215.214844 43.085938 188.703125 C 43.085938 162.1875 64.675781 140.621094 91.210938 140.621094 C 117.746094 140.621094 139.335938 162.1875 139.335938 188.703125 C 139.335938 215.214844 117.746094 236.78125 91.210938 236.78125 Z M 91.210938 150.238281 C 69.984375 150.238281 52.710938 167.492188 52.710938 188.703125 C 52.710938 209.910156 69.984375 227.167969 91.210938 227.167969 C 112.441406 227.167969 129.710938 209.910156 129.710938 188.703125 C 129.710938 167.492188 112.441406 150.238281 91.210938 150.238281 Z M 91.210938 150.238281 "/>
</g>
<path style=" stroke:none;fill-rule:nonzero;fill:rgb(83.918762%,76.469421%,70.199585%);fill-opacity:1;" d="M 76.792969 311.308594 C 72.8125 311.308594 69.574219 308.070312 69.574219 304.097656 C 69.574219 300.121094 72.8125 296.882812 76.792969 296.882812 C 80.773438 296.882812 84.011719 300.121094 84.011719 304.097656 C 84.011719 308.070312 80.777344 311.308594 76.792969 311.308594 Z M 76.792969 311.308594 "/>
<path style=" stroke:none;fill-rule:nonzero;fill:rgb(83.918762%,76.469421%,70.199585%);fill-opacity:1;" d="M 76.773438 332.925781 C 60.851562 332.925781 47.898438 319.992188 47.898438 304.097656 C 47.898438 288.199219 60.851562 275.265625 76.773438 275.265625 C 92.699219 275.265625 105.648438 288.199219 105.648438 304.097656 C 105.648438 319.992188 92.699219 332.925781 76.773438 332.925781 Z M 76.773438 284.882812 C 66.15625 284.882812 57.523438 293.5 57.523438 304.097656 C 57.523438 314.691406 66.15625 323.308594 76.773438 323.308594 C 87.390625 323.308594 96.023438 314.691406 96.023438 304.097656 C 96.023438 293.5 87.390625 284.882812 76.773438 284.882812 Z M 76.773438 284.882812 "/>
<path style=" stroke:none;fill-rule:nonzero;fill:rgb(83.918762%,76.469421%,70.199585%);fill-opacity:1;" d="M 119.875 327.90625 L 111.273438 323.59375 C 113.941406 318.28125 115.292969 312.535156 115.292969 306.519531 C 115.292969 285.308594 98.019531 268.054688 76.792969 268.054688 C 67.304688 268.054688 58.183594 271.535156 51.125 277.851562 L 44.703125 270.6875 C 53.535156 262.789062 64.929688 258.4375 76.792969 258.4375 C 103.328125 258.4375 124.917969 280.007812 124.917969 306.519531 C 124.917969 314.042969 123.222656 321.242188 119.875 327.90625 Z M 119.875 327.90625 "/>
<g clip-path="url(#clip3)" clip-rule="nonzero">
<path style=" stroke:none;fill-rule:nonzero;fill:rgb(45.878601%,50.19989%,61.178589%);fill-opacity:1;" d="M 331.835938 188.144531 C 331.835938 155.746094 304.851562 129.386719 271.679688 129.386719 C 238.507812 129.386719 211.523438 155.746094 211.523438 188.144531 L 211.523438 204.71875 L 183.613281 241.898438 C 182.515625 243.355469 182.339844 245.300781 183.15625 246.933594 C 183.96875 248.5625 185.636719 249.589844 187.460938 249.589844 L 211.523438 249.589844 L 211.523438 297.671875 C 211.523438 300.324219 213.679688 302.480469 216.335938 302.480469 L 269.273438 302.480469 L 269.273438 326.519531 C 269.273438 329.175781 271.429688 331.328125 274.085938 331.328125 L 327.023438 331.328125 C 329.679688 331.328125 331.835938 329.175781 331.835938 326.519531 Z M 322.210938 321.710938 L 278.898438 321.710938 L 278.898438 297.671875 C 278.898438 295.019531 276.742188 292.863281 274.085938 292.863281 L 221.148438 292.863281 L 221.148438 244.78125 C 221.148438 242.128906 218.992188 239.976562 216.335938 239.976562 L 197.085938 239.976562 L 220.1875 209.203125 C 220.8125 208.371094 221.148438 207.355469 221.148438 206.316406 L 221.148438 188.144531 C 221.148438 161.046875 243.816406 139.003906 271.679688 139.003906 C 299.542969 139.003906 322.210938 161.046875 322.210938 188.144531 Z M 322.210938 321.710938 "/>
</g>
<path style=" stroke:none;fill-rule:nonzero;fill:rgb(45.878601%,50.19989%,61.178589%);fill-opacity:1;" d="M 254.835938 201.511719 C 246.875 201.511719 240.398438 195.039062 240.398438 187.085938 L 230.773438 187.085938 C 230.773438 200.339844 241.570312 211.125 254.835938 211.125 C 268.105469 211.125 278.898438 200.339844 278.898438 187.085938 L 269.273438 187.085938 C 269.273438 195.039062 262.796875 201.511719 254.835938 201.511719 Z M 254.835938 201.511719 "/>
<path style=" stroke:none;fill-rule:nonzero;fill:rgb(45.878601%,50.19989%,61.178589%);fill-opacity:1;" d="M 129.710938 66.882812 L 148.960938 66.882812 L 148.960938 76.5 L 129.710938 76.5 Z M 129.710938 66.882812 "/>
<path style=" stroke:none;fill-rule:nonzero;fill:rgb(45.878601%,50.19989%,61.178589%);fill-opacity:1;" d="M 158.585938 66.882812 L 177.835938 66.882812 L 177.835938 76.5 L 158.585938 76.5 Z M 158.585938 66.882812 "/>
<path style=" stroke:none;fill-rule:nonzero;fill:rgb(45.878601%,50.19989%,61.178589%);fill-opacity:1;" d="M 187.460938 66.882812 L 206.710938 66.882812 L 206.710938 76.5 L 187.460938 76.5 Z M 187.460938 66.882812 "/>
<path style=" stroke:none;fill-rule:nonzero;fill:rgb(45.878601%,50.19989%,61.178589%);fill-opacity:1;" d="M 216.335938 66.882812 L 235.585938 66.882812 L 235.585938 76.5 L 216.335938 76.5 Z M 216.335938 66.882812 "/>
<path style=" stroke:none;fill-rule:nonzero;fill:rgb(45.878601%,50.19989%,61.178589%);fill-opacity:1;" d="M 245.210938 66.882812 L 264.460938 66.882812 L 264.460938 76.5 L 245.210938 76.5 Z M 245.210938 66.882812 "/>
<path style=" stroke:none;fill-rule:nonzero;fill:rgb(45.878601%,50.19989%,61.178589%);fill-opacity:1;" d="M 274.085938 76.5 L 283.710938 76.5 L 283.710938 95.730469 L 274.085938 95.730469 Z M 274.085938 76.5 "/>
<path style=" stroke:none;fill-rule:nonzero;fill:rgb(45.878601%,50.19989%,61.178589%);fill-opacity:1;" d="M 256.761719 104.386719 L 276.011719 118.8125 C 276.867188 119.449219 277.882812 119.773438 278.898438 119.773438 C 279.914062 119.773438 280.929688 119.449219 281.785156 118.8125 L 301.035156 104.386719 L 295.261719 96.695312 L 278.898438 108.953125 L 262.535156 96.695312 Z M 256.761719 104.386719 "/>
<path style=" stroke:none;fill-rule:nonzero;fill:rgb(45.878601%,50.19989%,61.178589%);fill-opacity:1;" d="M 186.5 209.203125 L 200.9375 189.96875 C 202.222656 188.265625 202.222656 185.90625 200.9375 184.199219 L 186.5 164.96875 L 178.800781 170.738281 L 191.070312 187.085938 L 178.800781 203.433594 Z M 186.5 209.203125 "/>
<path style=" stroke:none;fill-rule:nonzero;fill:rgb(45.878601%,50.19989%,61.178589%);fill-opacity:1;" d="M 148.960938 182.277344 L 168.210938 182.277344 L 168.210938 191.894531 L 148.960938 191.894531 Z M 148.960938 182.277344 "/>
<path style=" stroke:none;fill-rule:nonzero;fill:rgb(45.878601%,50.19989%,61.178589%);fill-opacity:1;" d="M 163.398438 302.308594 L 182.648438 302.308594 L 182.648438 311.921875 L 163.398438 311.921875 Z M 163.398438 302.308594 "/>
<path style=" stroke:none;fill-rule:nonzero;fill:rgb(45.878601%,50.19989%,61.178589%);fill-opacity:1;" d="M 134.523438 302.480469 L 153.773438 302.480469 L 153.773438 312.097656 L 134.523438 312.097656 Z M 134.523438 302.480469 "/>
<path style=" stroke:none;fill-rule:nonzero;fill:rgb(45.878601%,50.19989%,61.178589%);fill-opacity:1;" d="M 191.191406 328.535156 L 205.859375 309.578125 C 207.203125 307.847656 207.203125 305.425781 205.859375 303.691406 L 191.191406 284.734375 L 183.578125 290.617188 L 195.96875 306.632812 L 183.578125 322.648438 Z M 191.191406 328.535156 "/>
</g>
</svg>
