<?xml version="1.0" encoding="UTF-8"?>
<svg xmlns="http://www.w3.org/2000/svg" xmlns:xlink="http://www.w3.org/1999/xlink" width="375pt" height="374.999991pt" viewBox="0 0 375 374.999991" version="1.2">
<defs>
<clipPath id="clip1">
  <path d="M 54.195312 53.863281 L 320.445312 53.863281 L 320.445312 320.863281 L 54.195312 320.863281 Z M 54.195312 53.863281 "/>
</clipPath>
</defs>
<g id="surface1">
<g clip-path="url(#clip1)" clip-rule="nonzero">
<path style=" stroke:none;fill-rule:nonzero;fill:rgb(45.878601%,50.19989%,61.178589%);fill-opacity:1;" d="M 267.722656 296.957031 C 254.285156 296.957031 243.390625 290.316406 243.390625 287.667969 C 243.390625 275.335938 254.285156 265.335938 267.722656 265.335938 C 281.164062 265.335938 292.058594 275.335938 292.058594 287.667969 C 292.058594 291.097656 281.164062 296.957031 267.722656 296.957031 Z M 267.71875 232.824219 C 275.996094 232.824219 282.691406 239.527344 282.691406 247.796875 C 282.691406 256.066406 275.996094 262.765625 267.71875 262.765625 C 259.457031 262.765625 252.757812 256.066406 252.757812 247.796875 C 252.757812 239.527344 259.457031 232.824219 267.71875 232.824219 Z M 106.996094 214.015625 C 93.558594 214.015625 82.667969 207.378906 82.667969 204.730469 C 82.667969 192.394531 93.558594 182.398438 106.996094 182.398438 C 120.441406 182.398438 131.332031 192.394531 131.332031 204.730469 C 131.332031 208.160156 120.441406 214.015625 106.996094 214.015625 Z M 106.992188 149.886719 C 115.265625 149.886719 121.96875 156.585938 121.96875 164.859375 C 121.96875 173.125 115.265625 179.828125 106.992188 179.828125 C 98.734375 179.828125 92.03125 173.125 92.03125 164.859375 C 92.03125 156.585938 98.734375 149.886719 106.992188 149.886719 Z M 259.429688 103.925781 C 272.875 103.925781 283.765625 113.921875 283.765625 126.257812 C 283.765625 129.683594 272.875 135.542969 259.429688 135.542969 C 245.988281 135.542969 235.101562 128.90625 235.101562 126.257812 C 235.101562 113.921875 245.988281 103.925781 259.429688 103.925781 Z M 259.425781 71.414062 C 267.703125 71.414062 274.398438 78.113281 274.398438 86.382812 C 274.398438 94.652344 267.703125 101.359375 259.425781 101.359375 C 251.164062 101.359375 244.460938 94.652344 244.460938 86.382812 C 244.460938 78.113281 251.164062 71.414062 259.425781 71.414062 Z M 267.722656 215.320312 C 249.617188 215.320312 233.644531 224.449219 224.144531 238.34375 L 159.53125 190.089844 C 159.683594 188.46875 159.769531 186.828125 159.769531 185.167969 C 159.769531 177.894531 158.296875 170.964844 155.640625 164.660156 L 211 127.667969 C 219.109375 146.382812 237.738281 159.484375 259.429688 159.484375 C 288.574219 159.484375 312.199219 135.847656 312.199219 106.695312 C 312.199219 77.542969 288.574219 53.910156 259.429688 53.910156 C 230.285156 53.910156 206.660156 77.542969 206.660156 106.695312 C 206.660156 112.25 207.523438 117.601562 209.113281 122.632812 L 153.691406 160.574219 C 144.851562 143.816406 127.261719 132.382812 106.996094 132.382812 C 77.855469 132.382812 54.230469 156.015625 54.230469 185.167969 C 54.230469 214.316406 77.855469 237.953125 106.996094 237.953125 C 132.0625 237.953125 153.027344 220.472656 158.410156 197.035156 L 220.789062 243.980469 C 217.070312 251.214844 214.953125 259.410156 214.953125 268.109375 C 214.953125 297.257812 238.582031 320.894531 267.722656 320.894531 C 296.867188 320.894531 320.496094 297.257812 320.496094 268.109375 C 320.496094 238.953125 296.867188 215.320312 267.722656 215.320312 "/>
</g>
</g>
</svg>
