<?xml version="1.0" encoding="UTF-8"?>
<svg xmlns="http://www.w3.org/2000/svg" xmlns:xlink="http://www.w3.org/1999/xlink" width="375pt" height="374.999991pt" viewBox="0 0 375 374.999991" version="1.2">
<defs>
<clipPath id="clip1">
  <path d="M 85 48.148438 L 290.386719 48.148438 L 290.386719 327.148438 L 85 327.148438 Z M 85 48.148438 "/>
</clipPath>
</defs>
<g id="surface1">
<path style=" stroke:none;fill-rule:nonzero;fill:rgb(86.268616%,86.669922%,87.449646%);fill-opacity:1;" d="M 279.707031 158.570312 L 274.6875 162.808594 C 272.984375 164.246094 272.566406 166.699219 273.6875 168.621094 L 277.007812 174.292969 C 282.269531 183.285156 277.492188 194.816406 267.410156 197.453125 C 265.074219 198.0625 263.617188 200.378906 264.070312 202.746094 C 266.03125 212.980469 257.679688 222.257812 247.292969 221.382812 L 240.746094 220.832031 C 238.527344 220.644531 236.492188 222.078125 235.929688 224.234375 L 234.265625 230.589844 C 231.625 240.664062 220.089844 245.441406 211.097656 240.183594 C 209.015625 238.964844 206.347656 239.570312 204.992188 241.5625 L 204.992188 241.566406 C 199.140625 250.183594 186.671875 250.839844 179.949219 242.882812 L 175.710938 237.863281 C 174.273438 236.160156 171.820312 235.742188 169.894531 236.867188 L 164.226562 240.183594 C 155.230469 245.441406 143.695312 240.664062 141.058594 230.589844 C 140.445312 228.253906 138.128906 226.796875 135.761719 227.25 C 125.527344 229.207031 116.246094 220.859375 117.121094 210.476562 L 117.671875 203.933594 C 117.859375 201.714844 116.421875 199.679688 114.265625 199.117188 L 107.914062 197.453125 C 97.832031 194.816406 93.050781 183.285156 98.316406 174.292969 C 99.53125 172.210938 98.929688 169.539062 96.933594 168.1875 C 88.308594 162.335938 87.652344 149.875 95.617188 143.152344 L 100.636719 138.914062 C 102.335938 137.476562 102.757812 135.023438 101.632812 133.101562 L 98.316406 127.433594 C 93.050781 118.4375 97.832031 106.910156 107.914062 104.269531 C 110.246094 103.660156 111.707031 101.34375 111.25 98.976562 C 109.292969 88.742188 117.644531 79.464844 128.027344 80.34375 L 134.574219 80.894531 C 136.796875 81.078125 138.828125 79.644531 139.390625 77.488281 L 141.058594 71.136719 C 143.695312 61.054688 155.230469 56.277344 164.226562 61.539062 C 166.308594 62.757812 168.976562 62.15625 170.328125 60.15625 C 176.183594 51.535156 188.648438 50.882812 195.371094 58.839844 L 199.613281 63.859375 C 201.050781 65.558594 203.503906 65.980469 205.425781 64.855469 L 211.097656 61.539062 C 220.089844 56.277344 231.625 61.054688 234.265625 71.136719 C 234.878906 73.464844 237.191406 74.925781 239.558594 74.472656 C 249.796875 72.511719 259.078125 80.863281 258.199219 91.246094 L 257.648438 97.789062 C 257.460938 100.007812 258.898438 102.039062 261.054688 102.605469 L 267.410156 104.269531 C 277.492188 106.910156 282.269531 118.4375 277.007812 127.433594 C 275.789062 129.511719 276.394531 132.179688 278.386719 133.535156 C 287.011719 139.382812 287.667969 151.851562 279.707031 158.570312 "/>
<path style=" stroke:none;fill-rule:nonzero;fill:rgb(90.19928%,79.219055%,77.648926%);fill-opacity:1;" d="M 273.6875 168.621094 C 272.566406 166.699219 272.984375 164.246094 274.6875 162.808594 L 277.25 160.648438 C 285.492188 153.683594 286.019531 141.164062 278.386719 133.535156 C 278.203125 133.410156 278.03125 133.269531 277.871094 133.121094 L 270.796875 133.121094 C 266.804688 133.121094 264.234375 137.355469 266.078125 140.898438 C 266.078125 140.902344 266.078125 140.902344 266.078125 140.902344 C 270.695312 148.792969 266.503906 158.914062 257.65625 161.230469 C 255.449219 161.230469 253.894531 163.390625 254.59375 165.480469 L 254.722656 165.878906 C 257.582031 174.445312 250.738281 183.136719 241.738281 182.378906 L 234.253906 181.746094 C 232.304688 181.582031 230.519531 182.84375 230.027344 184.734375 L 228.566406 190.3125 C 226.246094 199.15625 216.125 203.351562 208.230469 198.734375 L 205.140625 198.734375 C 204.226562 198.734375 203.378906 199.1875 202.871094 199.945312 C 197.804688 207.546875 186.859375 208.167969 180.964844 201.1875 L 177.171875 196.699219 C 175.910156 195.203125 173.757812 194.835938 172.070312 195.824219 L 169.789062 197.15625 C 161.574219 201.960938 151.011719 198.820312 146.757812 190.3125 C 145.859375 188.515625 144.023438 187.382812 142.015625 187.382812 L 139.285156 187.382812 C 131.332031 187.382812 125.082031 180.582031 125.75 172.660156 L 126.234375 166.917969 C 126.398438 164.96875 125.136719 163.1875 123.246094 162.691406 L 118.566406 161.464844 C 109.632812 159.128906 105.113281 149.160156 109.242188 140.902344 C 110.15625 139.074219 109.671875 136.855469 108.078125 135.578125 L 108.03125 135.542969 C 106.988281 134.839844 106.085938 134.019531 105.3125 133.121094 L 101.644531 133.121094 C 102.753906 135.039062 102.332031 137.480469 100.636719 138.914062 L 95.589844 143.171875 C 87.597656 149.917969 88.3125 162.4375 97.011719 168.242188 C 99.011719 169.574219 99.589844 172.253906 98.316406 174.292969 C 92.8125 183.09375 97.425781 194.707031 107.472656 197.335938 L 114.265625 199.117188 C 116.421875 199.679688 117.859375 201.714844 117.671875 203.933594 L 116.734375 215.105469 C 115.941406 224.492188 125.3125 231.429688 134.0625 227.929688 C 136.730469 226.859375 139.769531 228.015625 141.058594 230.589844 C 145.90625 240.28125 157.941406 243.859375 167.296875 238.382812 L 169.894531 236.867188 C 171.820312 235.742188 174.273438 236.160156 175.710938 237.863281 L 181.230469 244.398438 C 187.871094 252.261719 200.390625 250.765625 204.992188 241.566406 L 204.992188 241.5625 C 205.417969 240.71875 206.28125 240.183594 207.226562 240.183594 L 211.097656 240.183594 C 220.089844 245.441406 231.625 240.664062 234.265625 230.589844 L 235.929688 224.234375 C 236.492188 222.078125 238.527344 220.644531 240.746094 220.832031 L 253.132812 221.875 C 261.5625 222.582031 267.96875 214.4375 265.292969 206.417969 C 264.242188 203.269531 265.0625 199.800781 267.410156 197.453125 C 277.492188 194.816406 282.269531 183.285156 277.007812 174.292969 Z M 214.875 322.371094 L 160.449219 322.371094 C 167.839844 313.207031 178.691406 308.769531 187.660156 308.769531 C 196.632812 308.769531 207.484375 313.207031 214.875 322.371094 "/>
<g clip-path="url(#clip1)" clip-rule="nonzero">
<path style=" stroke:none;fill-rule:nonzero;fill:rgb(45.878601%,50.19989%,61.178589%);fill-opacity:1;" d="M 276.625 154.921875 L 271.605469 159.160156 C 268.117188 162.105469 267.261719 167.097656 269.5625 171.035156 L 272.882812 176.703125 C 274.628906 179.6875 274.875 183.234375 273.550781 186.425781 C 272.226562 189.621094 269.546875 191.957031 266.199219 192.832031 C 261.449219 194.074219 258.453125 198.824219 259.375 203.644531 C 260.027344 207.042969 259.074219 210.464844 256.757812 213.035156 C 254.445312 215.605469 251.144531 216.914062 247.695312 216.621094 L 241.148438 216.070312 C 236.613281 215.6875 232.464844 218.613281 231.308594 223.023438 L 229.644531 229.378906 C 228.765625 232.722656 226.433594 235.402344 223.234375 236.726562 C 220.042969 238.046875 216.496094 237.804688 213.507812 236.058594 C 209.273438 233.585938 203.796875 234.824219 201.039062 238.882812 C 199.09375 241.742188 196 243.488281 192.546875 243.671875 C 192.511719 243.671875 192.472656 243.667969 192.4375 243.671875 L 192.4375 210.695312 L 201.878906 201.261719 L 204.253906 198.886719 L 228.839844 174.304688 C 228.84375 174.304688 228.84375 174.304688 228.84375 174.300781 L 241.199219 161.953125 C 243.0625 160.085938 243.0625 157.0625 241.199219 155.195312 C 239.332031 153.332031 236.304688 153.332031 234.441406 155.195312 L 230.242188 159.394531 L 230.242188 141.730469 C 230.242188 139.089844 228.101562 136.953125 225.464844 136.953125 C 222.824219 136.953125 220.6875 139.089844 220.6875 141.730469 L 220.6875 168.945312 L 192.4375 197.183594 L 192.4375 136.375 L 233.519531 95.304688 C 235.386719 93.4375 235.386719 90.414062 233.519531 88.550781 C 231.65625 86.6875 228.628906 86.6875 226.761719 88.550781 L 192.4375 122.863281 L 192.4375 89.628906 C 192.4375 86.992188 190.300781 84.851562 187.660156 84.851562 C 185.023438 84.851562 182.882812 86.992188 182.882812 89.628906 L 182.882812 134.390625 C 182.882812 134.394531 182.882812 134.394531 182.882812 134.394531 L 182.882812 155.351562 L 144.214844 116.691406 C 142.347656 114.828125 139.324219 114.828125 137.457031 116.691406 C 135.589844 118.558594 135.589844 121.582031 137.457031 123.449219 L 151.910156 137.898438 L 142.96875 137.898438 C 140.332031 137.898438 138.191406 140.035156 138.191406 142.671875 C 138.191406 145.3125 140.332031 147.449219 142.96875 147.449219 L 161.464844 147.449219 L 182.882812 168.863281 L 182.882812 238.953125 L 179.359375 234.78125 C 177.523438 232.605469 174.890625 231.457031 172.214844 231.457031 C 170.597656 231.457031 168.964844 231.875 167.484375 232.742188 L 161.8125 236.058594 C 158.828125 237.804688 155.28125 238.050781 152.085938 236.726562 C 148.890625 235.402344 146.554688 232.722656 145.679688 229.378906 C 144.433594 224.628906 139.6875 221.632812 134.863281 222.558594 C 131.464844 223.210938 128.042969 222.253906 125.472656 219.941406 C 122.898438 217.628906 121.59375 214.324219 121.882812 210.878906 L 122.433594 204.332031 C 122.816406 199.789062 119.890625 195.652344 115.476562 194.496094 L 109.125 192.832031 C 105.777344 191.957031 103.097656 189.621094 101.773438 186.429688 C 100.449219 183.234375 100.695312 179.6875 102.441406 176.703125 C 104.917969 172.46875 103.679688 166.992188 99.617188 164.234375 C 96.753906 162.292969 95.007812 159.199219 94.828125 155.746094 C 94.644531 152.292969 96.054688 149.03125 98.699219 146.800781 L 103.71875 142.5625 C 106.0625 140.578125 107.214844 137.667969 107.015625 134.773438 C 106.917969 133.375 106.511719 131.972656 105.757812 130.6875 L 102.441406 125.019531 C 100.695312 122.035156 100.449219 118.492188 101.773438 115.292969 C 103.097656 112.101562 105.777344 109.765625 109.125 108.890625 C 113.871094 107.648438 116.867188 102.898438 115.945312 98.078125 C 115.296875 94.679688 116.25 91.261719 118.5625 88.6875 C 120.875 86.117188 124.183594 84.8125 127.628906 85.101562 L 134.171875 85.652344 C 138.714844 86.035156 142.859375 83.109375 144.015625 78.699219 L 145.679688 72.34375 C 146.554688 69 148.890625 66.320312 152.085938 64.996094 C 155.28125 63.675781 158.828125 63.914062 161.8125 65.664062 C 166.050781 68.140625 171.53125 66.902344 174.285156 62.839844 C 176.226562 59.980469 179.320312 58.234375 182.773438 58.054688 C 186.226562 57.882812 189.492188 59.28125 191.722656 61.921875 L 195.964844 66.941406 C 198.90625 70.425781 203.902344 71.28125 207.839844 68.980469 L 213.511719 65.664062 C 216.496094 63.914062 220.042969 63.675781 223.234375 64.996094 C 226.433594 66.320312 228.765625 69 229.644531 72.34375 C 230.886719 77.089844 235.636719 80.085938 240.460938 79.164062 C 243.855469 78.515625 247.28125 79.46875 249.851562 81.78125 C 252.421875 84.09375 253.730469 87.398438 253.441406 90.84375 L 252.886719 97.386719 C 252.507812 101.933594 255.429688 106.070312 259.84375 107.226562 L 266.199219 108.890625 C 269.546875 109.765625 272.226562 112.101562 273.550781 115.292969 C 274.875 118.492188 274.628906 122.035156 272.882812 125.019531 C 271.394531 127.558594 271.257812 130.542969 272.25 133.121094 C 272.914062 134.84375 274.082031 136.382812 275.707031 137.488281 C 278.570312 139.429688 280.316406 142.523438 280.496094 145.976562 C 280.679688 149.429688 279.269531 152.691406 276.625 154.921875 Z M 277.894531 166.351562 L 282.792969 162.21875 C 287.738281 158.042969 290.378906 151.9375 290.039062 145.476562 C 289.699219 139.070312 286.492188 133.328125 281.222656 129.683594 C 284.410156 124.132812 284.832031 117.5625 282.378906 111.640625 C 279.898438 105.660156 274.882812 101.289062 268.617188 99.648438 L 262.421875 98.027344 L 262.960938 91.644531 C 263.503906 85.195312 261.058594 79.011719 256.242188 74.679688 C 251.476562 70.390625 245.144531 68.601562 238.839844 69.75 C 237.167969 63.566406 232.820312 58.625 226.890625 56.171875 C 220.910156 53.691406 214.273438 54.148438 208.683594 57.417969 L 203.15625 60.648438 L 199.023438 55.757812 C 194.847656 50.8125 188.734375 48.171875 182.273438 48.511719 C 175.867188 48.847656 170.121094 52.058594 166.480469 57.324219 C 160.925781 54.140625 154.355469 53.71875 148.429688 56.171875 C 142.445312 58.648438 138.074219 63.660156 136.433594 69.925781 L 134.8125 76.117188 L 128.429688 75.582031 C 121.976562 75.03125 115.792969 77.484375 111.460938 82.296875 C 107.167969 87.066406 105.375 93.394531 106.527344 99.695312 C 100.34375 101.371094 95.398438 105.714844 92.945312 111.640625 C 90.46875 117.621094 90.921875 124.253906 94.191406 129.84375 L 97.425781 135.371094 L 92.53125 139.5 C 87.585938 143.679688 84.941406 149.785156 85.28125 156.246094 C 85.621094 162.652344 88.832031 168.394531 94.101562 172.035156 C 90.914062 177.589844 90.492188 184.15625 92.945312 190.082031 C 95.425781 196.0625 100.4375 200.4375 106.703125 202.074219 L 112.898438 203.695312 L 112.359375 210.074219 C 111.816406 216.527344 114.265625 222.710938 119.078125 227.042969 C 123.847656 231.332031 130.183594 233.125 136.480469 231.976562 C 138.15625 238.152344 142.503906 243.097656 148.429688 245.550781 C 154.414062 248.027344 161.046875 247.574219 166.636719 244.304688 L 172.164062 241.070312 L 176.296875 245.960938 C 178.15625 248.164062 180.398438 249.902344 182.882812 251.128906 L 182.882812 317.59375 L 151.042969 317.59375 C 148.40625 317.59375 146.265625 319.734375 146.265625 322.371094 C 146.265625 325.011719 148.40625 327.148438 151.042969 327.148438 L 222.761719 327.148438 C 225.402344 327.148438 227.539062 325.011719 227.539062 322.371094 C 227.539062 319.734375 225.402344 317.59375 222.761719 317.59375 L 192.4375 317.59375 L 192.4375 253.226562 C 192.640625 253.222656 192.84375 253.222656 193.050781 253.210938 C 199.453125 252.871094 205.199219 249.664062 208.839844 244.398438 C 214.398438 247.582031 220.96875 248.003906 226.890625 245.550781 C 232.875 243.074219 237.246094 238.058594 238.890625 231.796875 L 240.507812 225.601562 L 246.890625 226.140625 C 253.34375 226.6875 259.53125 224.234375 263.863281 219.425781 C 268.152344 214.660156 269.949219 208.324219 268.796875 202.027344 C 274.976562 200.351562 279.921875 196.007812 282.378906 190.082031 C 284.855469 184.101562 284.402344 177.464844 281.132812 171.878906 L 277.894531 166.351562 "/>
</g>
</g>
</svg>
